<svg xmlns="http://www.w3.org/2000/svg" xmlns:xlink="http://www.w3.org/1999/xlink" viewBox="0 0 39.51 39.86"><defs><style>.cls-1{fill:url(#linear-gradient);}.cls-2{fill:url(#linear-gradient-2);}.cls-3{fill:#30b3ff;opacity:0.9;}</style><linearGradient id="linear-gradient" x1="7.44" y1="29.9" x2="31.38" y2="5.95" gradientUnits="userSpaceOnUse"><stop offset="0.01" stop-color="#fff" stop-opacity="0.7"/><stop offset="1" stop-color="#fff"/></linearGradient><linearGradient id="linear-gradient-2" x1="8.15" y1="29.46" x2="22.94" y2="14.66" xlink:href="#linear-gradient"/></defs><g id="Layer_2" data-name="Layer 2"><g id="Layer_1-2" data-name="Layer 1"><path class="cls-1" d="M39.51,18.23a10,10,0,0,1-9.88,10H9.88A9.83,9.83,0,0,1,7,9a10,10,0,0,1,9.82-9,9.72,9.72,0,0,1,9.77,8.24h3.07A10,10,0,0,1,39.51,18.23Z"/><path class="cls-2" d="M28,22.25a6.17,6.17,0,0,1-6.11,6.17H9.65a6.07,6.07,0,0,1-6.1-6.07,6.12,6.12,0,0,1,4.31-5.82A6.18,6.18,0,0,1,13.93,11a6,6,0,0,1,6,5.1h1.9A6.17,6.17,0,0,1,28,22.25Z"/><path class="cls-3" d="M11,36.17a1.59,1.59,0,0,1-2.2.33A1.59,1.59,0,0,1,9,34.28a7.26,7.26,0,0,1,2.48-1.2.42.42,0,0,1,.56.51A7.43,7.43,0,0,1,11,36.17Z"/><path class="cls-3" d="M28,34.56a1.44,1.44,0,1,1-2.1-1.9,7.5,7.5,0,0,1,2.49-1.2.42.42,0,0,1,.56.51A7.49,7.49,0,0,1,28,34.56Z"/><path class="cls-3" d="M20,39.42a1,1,0,1,1-1.44-1.31,5.14,5.14,0,0,1,1.71-.83.29.29,0,0,1,.39.35A5.15,5.15,0,0,1,20,39.42Z"/><path class="cls-3" d="M18.73,34.43a1.36,1.36,0,0,1-1.88.28,1.36,1.36,0,0,1,.09-1.91,6.51,6.51,0,0,1,2.13-1,.36.36,0,0,1,.48.44A6.35,6.35,0,0,1,18.73,34.43Z"/></g></g></svg>