<svg xmlns="http://www.w3.org/2000/svg" xmlns:xlink="http://www.w3.org/1999/xlink" viewBox="0 0 39.51 37.49"><defs><style>.cls-1{fill:url(#linear-gradient);}.cls-2{fill:url(#linear-gradient-2);}.cls-3{fill:#fff;opacity:0.9;}</style><linearGradient id="linear-gradient" x1="7.44" y1="29.9" x2="31.38" y2="5.95" gradientUnits="userSpaceOnUse"><stop offset="0.01" stop-color="#fff" stop-opacity="0.7"/><stop offset="1" stop-color="#fff"/></linearGradient><linearGradient id="linear-gradient-2" x1="7.35" y1="29.46" x2="22.14" y2="14.66" xlink:href="#linear-gradient"/></defs><g id="Layer_2" data-name="Layer 2"><g id="Layer_1-2" data-name="Layer 1"><path class="cls-1" d="M39.51,18.23a10,10,0,0,1-9.88,10H9.88A9.83,9.83,0,0,1,7,9a10,10,0,0,1,9.82-9,9.72,9.72,0,0,1,9.77,8.24h3.07A10,10,0,0,1,39.51,18.23Z"/><path class="cls-2" d="M27.17,22.25a6.16,6.16,0,0,1-6.11,6.17H8.85a6.07,6.07,0,0,1-6.1-6.07,6,6,0,0,1,1.79-4.3,6.14,6.14,0,0,1,2.52-1.52A6.18,6.18,0,0,1,13.13,11a6,6,0,0,1,6,5.1h1.9A6.16,6.16,0,0,1,27.17,22.25Z"/><path class="cls-3" d="M9.25,32.5l.71,0c.45,0,1.09,0,1.83-.09s1.61-.12,2.5-.26c.45-.07.9-.16,1.35-.26s.9-.25,1.34-.41l.76-.24c.29-.07.59-.12.87-.16a7.87,7.87,0,0,1,1.61,0,8.72,8.72,0,0,1,2.65.75,9.2,9.2,0,0,1,1.67,1,5.9,5.9,0,0,1,.56.47l-.7-.15c-.44-.09-1.06-.21-1.79-.31a13.56,13.56,0,0,0-2.46-.16c-.22,0-.44,0-.66,0s-.44.06-.66.09-.4.1-.61.13l-.68.23c-.27.09-.53.18-.79.25s-.53.13-.8.18a10.38,10.38,0,0,1-1.55.14,11.28,11.28,0,0,1-2.68-.29,11.61,11.61,0,0,1-1.82-.58A5.67,5.67,0,0,1,9.25,32.5Z"/><path class="cls-3" d="M34.32,36.48l-.71-.06c-.45,0-1.08-.08-1.82-.16s-1.6-.18-2.49-.35c-.45-.09-.9-.19-1.34-.32s-.89-.28-1.32-.45l-.76-.27c-.28-.08-.58-.14-.86-.19a7.24,7.24,0,0,0-1.6-.06A9,9,0,0,0,19,36.18a5.39,5.39,0,0,0-.59.46l.71-.13c.44-.07,1.06-.18,1.8-.25a15.16,15.16,0,0,1,2.46-.06l.66.06.66.12.6.16.68.25c.26.09.51.2.78.28s.52.15.78.2a9.54,9.54,0,0,0,1.55.2,11.82,11.82,0,0,0,2.69-.18,10.49,10.49,0,0,0,1.84-.52A5.06,5.06,0,0,0,34.32,36.48Z"/></g></g></svg>