<svg xmlns="http://www.w3.org/2000/svg" xmlns:xlink="http://www.w3.org/1999/xlink" viewBox="0 0 40.97 44.22"><defs><style>.cls-1{fill:url(#linear-gradient);}.cls-2{fill:#fff;}.cls-3{fill:url(#linear-gradient-2);}.cls-4{fill:#30b3ff;opacity:0.9;}</style><linearGradient id="linear-gradient" x1="7.44" y1="34.35" x2="31.38" y2="10.41" gradientUnits="userSpaceOnUse"><stop offset="0.01" stop-color="#fff" stop-opacity="0.7"/><stop offset="1" stop-color="#fff"/></linearGradient><linearGradient id="linear-gradient-2" x1="7.35" y1="33.92" x2="22.14" y2="19.12" xlink:href="#linear-gradient"/></defs><g id="Layer_2" data-name="Layer 2"><g id="Layer_1-2" data-name="Layer 1"><path class="cls-1" d="M39.51,22.69a10,10,0,0,1-9.88,10H9.88A9.83,9.83,0,0,1,7,13.44a10,10,0,0,1,9.82-9,9.72,9.72,0,0,1,9.77,8.24h3.07A10,10,0,0,1,39.51,22.69Z"/><path class="cls-2" d="M41,13.39A9.88,9.88,0,1,1,27.58,0a9.89,9.89,0,0,0,8.69,14.57A9.93,9.93,0,0,0,41,13.39Z"/><path class="cls-3" d="M27.17,26.71a6.16,6.16,0,0,1-6.11,6.17H8.85a6.07,6.07,0,0,1-6.1-6.07,6,6,0,0,1,1.79-4.3A6.14,6.14,0,0,1,7.06,21a6.18,6.18,0,0,1,6.07-5.55,6,6,0,0,1,6,5.1h1.9A6.16,6.16,0,0,1,27.17,26.71Z"/><path class="cls-4" d="M12.24,40.53a1.59,1.59,0,0,1-2.2.33,1.58,1.58,0,0,1,.11-2.22,7.45,7.45,0,0,1,2.48-1.2.42.42,0,0,1,.56.51A7.43,7.43,0,0,1,12.24,40.53Z"/><path class="cls-4" d="M29.17,38.92a1.44,1.44,0,1,1-2.1-1.9,7.5,7.5,0,0,1,2.49-1.2.42.42,0,0,1,.56.51A7.49,7.49,0,0,1,29.17,38.92Z"/><path class="cls-4" d="M21.16,43.78a1,1,0,1,1-1.44-1.31,5.14,5.14,0,0,1,1.71-.83.28.28,0,0,1,.38.35A5,5,0,0,1,21.16,43.78Z"/><path class="cls-4" d="M19.93,38.79a1.36,1.36,0,0,1-1.88.28,1.36,1.36,0,0,1,.09-1.91,6.51,6.51,0,0,1,2.13-1,.36.36,0,0,1,.48.44A6.35,6.35,0,0,1,19.93,38.79Z"/></g></g></svg>