<svg xmlns="http://www.w3.org/2000/svg" xmlns:xlink="http://www.w3.org/1999/xlink" viewBox="0 0 40.97 44.4"><defs><style>.cls-1{fill:url(#linear-gradient);}.cls-2,.cls-4{fill:#fff;}.cls-3{fill:url(#linear-gradient-2);}.cls-4{opacity:0.9;}</style><linearGradient id="linear-gradient" x1="7.44" y1="34.35" x2="31.38" y2="10.41" gradientUnits="userSpaceOnUse"><stop offset="0.01" stop-color="#fff" stop-opacity="0.7"/><stop offset="1" stop-color="#fff"/></linearGradient><linearGradient id="linear-gradient-2" x1="7.35" y1="33.92" x2="22.14" y2="19.12" xlink:href="#linear-gradient"/></defs><g id="Layer_2" data-name="Layer 2"><g id="Layer_1-2" data-name="Layer 1"><path class="cls-1" d="M39.51,22.69a10,10,0,0,1-9.88,10H9.88A9.83,9.83,0,0,1,7,13.44a10,10,0,0,1,9.82-9,9.72,9.72,0,0,1,9.77,8.24h3.07A10,10,0,0,1,39.51,22.69Z"/><path class="cls-2" d="M41,13.39A9.88,9.88,0,1,1,27.58,0a9.89,9.89,0,0,0,8.69,14.57A9.93,9.93,0,0,0,41,13.39Z"/><path class="cls-3" d="M27.17,26.71a6.16,6.16,0,0,1-6.11,6.17H8.85a6.07,6.07,0,0,1-6.1-6.07,6,6,0,0,1,1.79-4.3A6.14,6.14,0,0,1,7.06,21a6.18,6.18,0,0,1,6.07-5.55,6,6,0,0,1,6,5.1h1.9A6.16,6.16,0,0,1,27.17,26.71Z"/><circle class="cls-4" cx="19.89" cy="43.08" r="1.32"/><circle class="cls-4" cx="27.37" cy="40.27" r="1.87"/><circle class="cls-4" cx="10.54" cy="38.4" r="1.87"/></g></g></svg>