<svg xmlns="http://www.w3.org/2000/svg" xmlns:xlink="http://www.w3.org/1999/xlink" viewBox="0 0 39.51 38.21"><defs><style>.cls-1{fill:#30b3ff;opacity:0.9;}.cls-2{fill:url(#linear-gradient);}.cls-3{fill:url(#linear-gradient-2);}</style><linearGradient id="linear-gradient" x1="7.44" y1="29.9" x2="31.38" y2="5.95" gradientUnits="userSpaceOnUse"><stop offset="0.01" stop-color="#fff" stop-opacity="0.7"/><stop offset="1" stop-color="#fff"/></linearGradient><linearGradient id="linear-gradient-2" x1="7.35" y1="29.46" x2="22.14" y2="14.66" xlink:href="#linear-gradient"/></defs><g id="Layer_2" data-name="Layer 2"><g id="Layer_1-2" data-name="Layer 1"><path class="cls-1" d="M15.92,25.31l-4.24,6a.92.92,0,0,0,.75,1.46h0a.92.92,0,0,1,.79,1.41L11,37.84a.24.24,0,0,0,.37.31l7.18-6.42a.93.93,0,0,0-.45-1.61h0a.92.92,0,0,1-.62-1.39l1.46-2.4a.92.92,0,0,0-.79-1.41H16.67A.9.9,0,0,0,15.92,25.31Z"/><path class="cls-2" d="M39.51,18.23a10,10,0,0,1-9.88,10H9.88A9.83,9.83,0,0,1,7,9a10,10,0,0,1,9.82-9,9.72,9.72,0,0,1,9.77,8.24h3.07A10,10,0,0,1,39.51,18.23Z"/><path class="cls-3" d="M27.17,22.25a6.16,6.16,0,0,1-6.11,6.17H8.85a6.07,6.07,0,0,1-6.1-6.07,6,6,0,0,1,1.79-4.3,6.14,6.14,0,0,1,2.52-1.52A6.18,6.18,0,0,1,13.13,11a6,6,0,0,1,6,5.1h1.9A6.16,6.16,0,0,1,27.17,22.25Z"/></g></g></svg>